HIERARCHY
ROOT root
{
	OFFSET 0.000000 0.000000 0.000000
	CHANNELS 6 Xposition Yposition Zposition Zrotation Yrotation Xrotation
	JOINT lhip
	{
		OFFSET 0.058581 -0.082280 -0.017664
		CHANNELS 3 Zrotation Yrotation Xrotation
		JOINT lknee
		{
			OFFSET 0.043451 -0.386469 0.008037
			CHANNELS 3 Zrotation Yrotation Xrotation
			JOINT lankle
			{
				OFFSET -0.014790 -0.426874 -0.037428
				CHANNELS 3 Zrotation Yrotation Xrotation
				JOINT ltoe
				{
					OFFSET 0.041054 -0.060286 0.122042
					CHANNELS 3 Zrotation Yrotation Xrotation
					End Site
					{
						OFFSET 0.000000 0.000000 0.000000
					}
				}
			}
		}
	}
	JOINT rhip
	{
		OFFSET -0.060310 -0.090513 -0.013543
		CHANNELS 3 Zrotation Yrotation Xrotation
		JOINT rknee
		{
			OFFSET -0.043257 -0.383688 -0.004843
			CHANNELS 3 Zrotation Yrotation Xrotation
			JOINT rankle
			{
				OFFSET 0.019056 -0.420046 -0.034562
				CHANNELS 3 Zrotation Yrotation Xrotation
				JOINT rtoe
				{
					OFFSET -0.034840 -0.062106 0.130323
					CHANNELS 3 Zrotation Yrotation Xrotation
					End Site
					{
						OFFSET 0.000000 0.000000 0.000000
					}
				}
			}
		}
	}
	JOINT lowerback
	{
		OFFSET 0.004439 0.124404 -0.038385
		CHANNELS 3 Zrotation Yrotation Xrotation
		JOINT upperback
		{
			OFFSET 0.004488 0.137956 0.026820
			CHANNELS 3 Zrotation Yrotation Xrotation
			JOINT chest
			{
				OFFSET -0.002265 0.056032 0.002855
				CHANNELS 3 Zrotation Yrotation Xrotation
				JOINT lowerneck
				{
					OFFSET -0.013390 0.211636 -0.033468
					CHANNELS 3 Zrotation Yrotation Xrotation
					JOINT upperneck
					{
						OFFSET 0.010113 0.088937 0.050410
						CHANNELS 3 Zrotation Yrotation Xrotation
						End Site
						{
							OFFSET 0.000000 0.000000 0.000000
						}
					}
				}
				JOINT lclavicle
				{
					OFFSET 0.071702 0.114000 -0.018898
					CHANNELS 3 Zrotation Yrotation Xrotation
					JOINT lshoulder
					{
						OFFSET 0.122921 0.045205 -0.019046
						CHANNELS 3 Zrotation Yrotation Xrotation
						JOINT lelbow
						{
							OFFSET 0.255332 -0.015649 -0.022946
							CHANNELS 3 Zrotation Yrotation Xrotation
							JOINT lwrist
							{
								OFFSET 0.265709 0.012698 -0.007375
								CHANNELS 3 Zrotation Yrotation Xrotation
								End Site
								{
									OFFSET 0.000000 0.000000 0.000000
								}
							}
						}
					}
				}
				JOINT rclavicle
				{
					OFFSET -0.082954 0.112472 -0.023707
					CHANNELS 3 Zrotation Yrotation Xrotation
					JOINT rshoulder
					{
						OFFSET -0.113228 0.046853 -0.008472
						CHANNELS 3 Zrotation Yrotation Xrotation
						JOINT relbow
						{
							OFFSET -0.260127 -0.014369 -0.031269
							CHANNELS 3 Zrotation Yrotation Xrotation
							JOINT rwrist
							{
								OFFSET -0.269108 0.006794 -0.006027
								CHANNELS 3 Zrotation Yrotation Xrotation
								End Site
								{
									OFFSET 0.000000 0.000000 0.000000
								}
							}
						}
					}
				}
			}
		}
	}
}
MOTION
Frames: 16
Frame Time: 0.033333
-0.779665 0.259552 1.005982 90.980782 1.315674 87.493904 5.307778 2.853567 -2.646998 -4.512146 -0.718231 6.551848 -1.776540 8.354849 -4.075849 0.000000 -0.000000 0.000000 -3.258197 -3.678978 -4.346010 4.472028 -2.332291 9.516817 4.007621 -2.851240 -4.633422 0.000000 -0.000000 0.000000 1.348218 0.513699 12.341307 2.658385 -4.098081 5.936277 0.224766 -1.392543 1.053306 -1.670494 -0.770978 16.219355 1.556090 -4.076829 15.919851 -21.665332 -3.528840 5.535714 -64.262622 -15.832115 11.921691 9.645008 -21.352532 5.077539 3.488179 -3.190899 -17.312487 21.928780 6.059279 4.975290 58.670331 15.819620 12.219021 -15.803067 22.697119 -1.775821 0.910010 2.350756 -11.076635 
-0.778379 0.259418 1.005890 90.978973 1.333266 87.375962 5.409450 2.901418 -2.172644 -4.590648 -0.864140 6.094409 -1.775880 8.321412 -4.082508 0.000000 -0.000000 0.000000 -3.250995 -3.672761 -4.120158 4.502647 -2.268722 9.505273 4.036397 -2.937600 -4.706346 0.000000 -0.000000 0.000000 1.380798 0.418448 12.100668 2.497683 -4.005173 5.808244 0.232314 -1.371516 1.161202 -1.672475 -0.879711 15.971081 1.525455 -3.990601 16.158914 -21.645801 -3.702358 5.549660 -64.621363 -15.900033 12.309658 9.459625 -21.918484 5.591562 3.828389 -3.435604 -17.522304 21.861924 6.252582 4.922913 58.776794 15.616139 12.227075 -15.847054 21.879085 -1.998269 0.900677 2.344390 -10.856375 
-0.777111 0.259694 1.005898 91.011377 1.350960 87.228403 5.485816 2.979984 -1.702577 -4.661741 -1.048078 5.687382 -1.791352 8.247752 -4.095587 0.000000 -0.000000 0.000000 -3.255694 -3.664497 -3.877368 4.493095 -2.278501 9.524618 4.053932 -2.973193 -4.783111 0.000000 -0.000000 0.000000 1.350903 0.365886 11.821140 2.460786 -3.993896 5.858252 0.190483 -1.353534 1.066376 -1.664337 -0.819726 15.975640 1.506777 -3.898282 16.252040 -21.659294 -3.903066 5.582930 -64.833099 -16.025120 12.687123 9.090295 -22.152422 6.086495 4.049170 -3.470721 -17.352308 21.833293 6.339371 4.970108 58.941445 15.517350 12.202250 -15.799437 21.083424 -2.172946 0.965536 2.183496 -10.813329 
-0.775546 0.260468 1.005899 91.049960 1.387648 86.999586 5.565100 3.113311 -1.083890 -4.747568 -1.272837 5.187736 -1.776240 8.147030 -4.092720 0.000000 -0.000000 0.000000 -3.254412 -3.681264 -3.492756 4.436616 -2.282009 9.482333 4.071475 -3.001696 -4.855671 0.000000 -0.000000 0.000000 1.289275 0.305403 11.466121 2.452452 -4.048420 5.988546 0.129232 -1.327483 0.935775 -1.639330 -0.558353 16.065142 1.475294 -3.780943 16.437713 -21.682038 -4.202320 5.640972 -65.001045 -16.199377 13.037871 8.679725 -21.970660 6.918618 3.577528 -3.529643 -17.208304 21.933667 6.412619 5.079716 59.160118 15.412498 12.168713 -15.772866 20.278359 -2.230877 1.265130 2.051372 -10.814057 
-0.774657 0.261148 1.005853 91.068655 1.417027 86.861102 5.601117 3.187088 -0.745458 -4.786598 -1.407635 4.926832 -1.771154 8.087510 -4.095063 0.000000 -0.000000 0.000000 -3.256513 -3.677129 -3.260921 4.397078 -2.276313 9.443950 4.087637 -3.037128 -4.900229 0.000000 -0.000000 0.000000 1.232757 0.268277 11.267440 2.465755 -4.089259 6.042207 0.130280 -1.325976 0.872168 -1.661845 -0.392128 16.139564 1.419099 -3.647685 16.596320 -21.674709 -4.378150 5.680037 -65.141892 -16.309298 13.202074 8.485187 -21.745089 7.279435 3.545710 -3.551787 -16.989127 22.010823 6.428447 5.161848 59.293982 15.336812 12.168528 -15.750608 19.965258 -2.257151 1.405599 2.001664 -10.777772 
-0.773750 0.262295 1.005732 91.095958 1.470836 86.721534 5.634429 3.241241 -0.444945 -4.825116 -1.570570 4.742338 -1.755164 8.030142 -4.120933 0.000000 -0.000000 0.000000 -3.248476 -3.662782 -3.060526 4.326106 -2.283971 9.474108 4.105631 -3.082711 -4.964706 0.000000 -0.000000 0.000000 1.132946 0.229590 11.018347 2.520598 -4.163903 6.062569 0.155041 -1.345766 0.866003 -1.668599 -0.157053 16.187144 1.333934 -3.524062 16.677543 -21.633272 -4.481306 5.658420 -65.387761 -16.445224 13.406190 8.341754 -21.487429 7.652755 3.547764 -3.518548 -16.765103 22.142797 6.335287 5.182210 59.523693 15.240238 12.238857 -15.779617 19.800289 -2.255220 1.544439 1.932067 -10.769657 
-0.773149 0.263595 1.005579 91.068048 1.519464 86.642875 5.645028 3.273302 -0.250232 -4.860215 -1.643706 4.626813 -1.732988 7.968911 -4.162494 0.000000 -0.000000 0.000000 -3.240719 -3.628593 -3.000471 4.231967 -2.290441 9.589256 4.133739 -3.099919 -5.041171 0.000000 -0.000000 0.000000 1.015751 0.211875 10.777131 2.595858 -4.221920 6.085161 0.176902 -1.371039 0.889715 -1.640199 0.066217 16.092097 1.210407 -3.492482 16.650533 -21.587478 -4.447104 5.602848 -65.613262 -16.552634 13.535857 8.290820 -21.377451 7.930974 3.482706 -3.484375 -16.625010 22.318390 6.114030 5.142730 59.813871 15.176864 12.332111 -15.881597 19.862026 -2.233583 1.655118 1.876899 -10.800894 
-0.773025 0.264935 1.005437 90.972374 1.561943 86.647371 5.632731 3.312592 -0.155320 -4.884915 -1.645781 4.483903 -1.703853 7.940356 -4.177451 0.000000 -0.000000 0.000000 -3.229759 -3.589071 -3.105053 4.132613 -2.277388 9.753143 4.169444 -3.104862 -5.098104 0.000000 -0.000000 0.000000 0.915836 0.197748 10.577722 2.657753 -4.245262 6.055598 0.170386 -1.387232 0.915035 -1.582526 0.271543 15.889846 1.070237 -3.510765 16.649523 -21.565791 -4.328680 5.541933 -65.707591 -16.603493 13.594776 8.225051 -21.408200 8.101269 3.515684 -3.456616 -16.649104 22.534725 5.884118 5.106778 60.159970 15.135307 12.495121 -16.023407 19.998695 -2.311617 1.611427 1.858083 -10.910163 
-0.773010 0.266328 1.005344 90.841184 1.595229 86.661032 5.602738 3.411241 -0.003768 -4.894109 -1.632245 4.206300 -1.684829 7.916340 -4.136606 0.000000 -0.000000 0.000000 -3.235943 -3.539946 -3.198849 4.044056 -2.248351 9.851821 4.207893 -3.105149 -5.115433 0.000000 -0.000000 0.000000 0.840696 0.166803 10.434030 2.685861 -4.243327 6.007744 0.146885 -1.391942 0.928674 -1.507165 0.450481 15.704240 0.978583 -3.531387 16.695678 -21.536965 -4.198131 5.487336 -65.720853 -16.601614 13.600082 8.152655 -21.420334 8.240343 3.603744 -3.466643 -16.652172 22.708742 5.713305 5.081404 60.584488 15.081496 12.716463 -16.126419 20.118486 -2.377456 1.506794 1.868065 -11.032894 
-0.773140 0.268115 1.005369 90.680475 1.614653 86.669644 5.557456 3.564700 0.236325 -4.924483 -1.629298 3.773725 -1.708253 7.894645 -4.053062 0.000000 -0.000000 0.000000 -3.281123 -3.472994 -3.241805 3.955968 -2.246784 9.846922 4.270250 -3.088118 -5.076891 0.000000 -0.000000 0.000000 0.767350 0.116474 10.315063 2.693093 -4.245086 5.949885 0.121061 -1.396650 0.946092 -1.433531 0.666449 15.618029 0.893871 -3.491510 16.755817 -21.470612 -4.105482 5.431481 -65.691903 -16.587652 13.570515 8.111814 -21.221885 8.346504 3.633813 -3.471657 -16.544312 22.844282 5.569626 5.014621 61.158797 15.043476 13.018685 -16.137288 20.141385 -2.322993 1.572521 1.841279 -11.119221 
-0.773515 0.269454 1.005400 90.554435 1.626989 86.708389 5.534225 3.658505 0.328674 -4.974700 -1.577465 3.517489 -1.742641 7.870505 -4.000679 0.000000 -0.000000 0.000000 -3.318928 -3.446319 -3.352805 3.894783 -2.249953 9.887975 4.319312 -3.043080 -5.037685 0.000000 -0.000000 0.000000 0.717305 0.093596 10.232105 2.708590 -4.259798 5.935928 0.108963 -1.382204 0.969255 -1.362056 0.858108 15.522344 0.841295 -3.454403 16.790462 -21.402503 -4.077119 5.382418 -65.666074 -16.599329 13.519321 8.121184 -20.902840 8.397518 3.570907 -3.530878 -16.374399 22.935549 5.497383 4.997498 61.537405 15.062024 13.219202 -16.098068 20.172386 -2.161295 1.773254 1.821869 -11.165673 
-0.774040 0.270770 1.005380 90.499519 1.645890 86.739516 5.500095 3.707108 0.295540 -5.005123 -1.514551 3.470170 -1.778616 7.857540 -4.021319 0.000000 -0.000000 0.000000 -3.357435 -3.433770 -3.462914 3.853445 -2.256763 9.945954 4.353057 -3.032827 -5.016632 0.000000 -0.000000 0.000000 0.687227 0.079380 10.241843 2.739775 -4.300721 5.907131 0.120510 -1.393479 0.999386 -1.302692 1.037641 15.362695 0.795746 -3.398798 16.834958 -21.356922 -4.080804 5.354374 -65.619237 -16.632113 13.414114 8.167436 -20.561779 8.317557 3.502686 -3.539593 -16.240713 23.027511 5.459651 4.969216 61.789344 15.067179 13.403328 -16.024315 20.244728 -1.961648 1.952253 1.835638 -11.183116 
-0.774602 0.272019 1.005329 90.464659 1.666573 86.761846 5.443326 3.748376 0.183063 -4.995008 -1.452703 3.575199 -1.798217 7.892128 -4.087227 0.000000 -0.000000 0.000000 -3.393304 -3.435356 -3.559132 3.816860 -2.261180 10.003159 4.393474 -3.020147 -4.992932 0.000000 -0.000000 0.000000 0.673979 0.087920 10.341535 2.772994 -4.322101 5.826768 0.148446 -1.403974 1.035506 -1.271157 1.194569 15.224490 0.788262 -3.348682 16.848655 -21.302802 -4.109909 5.295659 -65.600237 -16.662303 13.332099 8.218732 -20.112237 8.259784 3.521917 -3.570411 -16.122668 23.107910 5.416297 4.938701 61.961301 15.038173 13.549681 -15.957125 20.345306 -1.754482 2.001874 1.845087 -11.206741 
-0.775146 0.273163 1.005263 90.411891 1.707163 86.762608 5.416464 3.768075 0.059534 -4.993026 -1.376137 3.750871 -1.808081 7.976873 -4.190232 0.000000 -0.000000 0.000000 -3.414202 -3.449359 -3.621519 3.804069 -2.246655 10.039493 4.417265 -2.992265 -4.952974 0.000000 -0.000000 0.000000 0.691673 0.126282 10.433520 2.807653 -4.335476 5.839775 0.177091 -1.392765 1.062332 -1.239392 1.312821 15.079734 0.793158 -3.288681 16.813484 -21.276633 -4.199808 5.276069 -65.551872 -16.699577 13.212360 8.309696 -19.716180 8.123967 3.530360 -3.551124 -15.991605 23.145738 5.453791 4.959868 62.066351 15.043068 13.608491 -15.927559 20.398346 -1.615211 2.044769 1.838658 -11.254090 
-0.775599 0.274162 1.005207 90.329144 1.749237 86.762316 5.407597 3.764626 -0.050840 -5.002555 -1.272393 3.927069 -1.853128 8.119462 -4.388596 0.000000 -0.000000 0.000000 -3.434604 -3.456662 -3.651052 3.808491 -2.227559 10.017250 4.447474 -2.948751 -4.896753 0.000000 -0.000000 0.000000 0.720127 0.171819 10.495544 2.829984 -4.334283 5.868503 0.188361 -1.363006 1.100739 -1.194050 1.411632 14.956802 0.791491 -3.256634 16.835228 -21.264723 -4.270613 5.239052 -65.482548 -16.711531 13.103720 8.398703 -19.356988 7.903879 3.510091 -3.540173 -15.886366 23.187214 5.517521 4.973168 62.100549 15.088232 13.648466 -15.884144 20.299404 -1.525597 2.084831 1.826604 -11.261981 
-0.775716 0.275073 1.005184 90.192813 1.776652 86.768948 5.388704 3.786869 -0.103041 -5.009025 -1.179891 4.034914 -1.909218 8.276623 -4.613443 0.000000 -0.000000 0.000000 -3.471774 -3.468226 -3.639188 3.827351 -2.197584 9.932239 4.497193 -2.880222 -4.827182 0.000000 -0.000000 0.000000 0.741681 0.240584 10.522724 2.836542 -4.285856 5.860633 0.191644 -1.309165 1.109827 -1.168227 1.447508 14.963113 0.806430 -3.251577 16.915609 -21.259477 -4.303759 5.218972 -65.426153 -16.691152 13.009426 8.433294 -18.984357 7.780258 3.486882 -3.549367 -15.741071 23.206954 5.571646 5.005605 62.088476 15.087122 13.641421 -15.835460 20.120038 -1.453835 2.143934 1.803613 -11.234497 
